<svg width="17" height="16" viewBox="0 0 17 16" fill="none" xmlns="http://www.w3.org/2000/svg">
<path d="M8.76291 3.84082C6.49286 3.84082 4.64844 5.68847 4.64844 7.95529C4.64844 10.2253 6.49608 12.0698 8.76291 12.0698C11.0297 12.0698 12.8774 10.2221 12.8774 7.95529C12.8806 5.68524 11.033 3.84082 8.76291 3.84082ZM8.76291 10.5994C7.30543 10.5994 6.11881 9.41277 6.11881 7.95529C6.11881 6.49782 7.30543 5.31119 8.76291 5.31119C10.2204 5.31119 11.407 6.49782 11.407 7.95529C11.407 9.41277 10.2204 10.5994 8.76291 10.5994Z" fill="black"/>
<path d="M13.4324 4.58097C13.8995 4.36076 14.0996 3.80357 13.8794 3.33645C13.6592 2.86932 13.102 2.66916 12.6349 2.88937C12.1677 3.10957 11.9676 3.66676 12.1878 4.13388C12.408 4.60101 12.9652 4.80118 13.4324 4.58097Z" fill="black"/>
<path d="M15.4726 1.30915C14.6213 0.45143 13.4508 0 12.0869 0H5.44438C2.64551 0 0.765625 1.87989 0.765625 4.67876V11.2858C0.765625 12.6852 1.22995 13.875 2.11347 14.7295C2.96796 15.5582 4.13201 16 5.47985 16H12.0482C13.4218 16 14.5955 15.5615 15.4436 14.7328C16.3045 13.8912 16.7624 12.711 16.7624 11.3212V4.67876C16.7624 3.32447 16.3174 2.16042 15.4726 1.30915ZM15.2888 11.3212C15.2888 12.3047 14.9857 13.1205 14.415 13.6784C13.8474 14.233 13.0284 14.5264 12.0482 14.5264H5.47985C4.52218 14.5264 3.71282 14.233 3.13886 13.6719C2.54878 13.1012 2.23922 12.2757 2.23922 11.2826V4.67553C2.23922 3.69851 2.53588 2.88593 3.10017 2.32487C3.66123 1.76703 4.47058 1.47037 5.44116 1.47037H12.0836C13.0478 1.47037 13.8571 1.77348 14.4246 2.34422C14.9889 2.91174 15.2856 3.71786 15.2856 4.67553V11.3212H15.2888Z" fill="black"/>
</svg>
