<svg width="17" height="16" viewBox="0 0 17 16" fill="none" xmlns="http://www.w3.org/2000/svg">
<path d="M14.912 0H1.27546C0.624709 0 0.09375 0.514676 0.09375 1.14515V14.8516C0.09375 15.4853 0.624709 15.9968 1.27546 15.9968H14.912C15.566 15.9968 16.0937 15.4821 16.0937 14.8516V1.14515C16.0937 0.514676 15.566 0 14.912 0ZM4.94361 13.3945H2.52839V6.16968H4.94685V13.3945H4.94361ZM3.736 5.18215H3.71981C2.91042 5.18215 2.38594 4.62565 2.38594 3.93406C2.38594 3.22638 2.92661 2.68597 3.75219 2.68597C4.57776 2.68597 5.0893 3.22638 5.10549 3.93406C5.10225 4.62887 4.57776 5.18215 3.736 5.18215ZM13.6591 13.3945H11.2439V9.52795C11.2439 8.55649 10.8942 7.89385 10.0201 7.89385C9.35316 7.89385 8.95494 8.34097 8.78011 8.77201C8.71536 8.92642 8.69917 9.14194 8.69917 9.35746V13.3912H6.28072C6.28072 13.3912 6.31309 6.8452 6.28072 6.16647H8.69917V7.18938C9.01969 6.69723 9.59598 5.99598 10.878 5.99598C12.4677 5.99598 13.6591 7.02855 13.6591 9.24809V13.3945Z" fill="black"/>
</svg>
