<svg width="39" height="26" viewBox="0 0 39 26" fill="none" xmlns="http://www.w3.org/2000/svg">
<g clip-path="url(#clip0_3219_3081)">
<path d="M30.1609 7.51459H28.9849V6.31853H30.1609V7.51459ZM26.4036 6.77633L26.0512 6.18655L25.6988 6.77633L26.0512 7.36612L26.4036 6.77633ZM30.1609 4.41307H28.9849V5.60914H30.1609V4.41307ZM38.2778 13.7341H21.1425V0H38.2778V13.7341ZM32.0375 3.2335L32.0334 1.81472H31.3286V2.52824H30.6239V1.81472H29.9191V2.52824H29.2144V1.81472H28.5096V2.52824H27.8049V1.81472H27.1001V3.2335H32.0375ZM30.1609 8.81377V9.84486H30.8656V3.70368H28.2802V9.84486H28.9849V8.81377C28.9849 8.48794 29.2471 8.21986 29.5749 8.21986C29.8945 8.22398 30.1609 8.48794 30.1609 8.81377ZM27.809 5.12659V3.70368H27.1042V4.4172H26.3995V3.70368H25.6947V4.4172H24.99V3.70368H24.2852V5.12659H27.809ZM24.9981 6.77633L24.2934 7.9559H24.9981L25.3505 7.36612L25.7029 7.9559H26.4076L26.76 7.36612L27.1124 7.9559H27.8171L27.1124 6.77633L27.8171 5.59676H27.1124L26.7559 6.18655L26.4036 5.59676H25.6988L25.3505 6.18655L24.9981 5.59676H24.2934L24.9981 6.77633ZM27.809 9.84486V8.42195H27.1042V9.13547H26.3995V8.42195H25.6947V9.13547H24.99V8.42195H24.2852V9.84486H27.809ZM32.7873 10.3192H31.8899L31.4269 11.0327H27.7188L27.2558 10.3192H26.3585L27.2066 11.7379H31.9391L32.7873 10.3192ZM34.8483 8.42608H34.1435V9.13959H33.4388V8.42608H32.7381V9.13959H32.0334V8.42608H31.3286V9.84486H34.8442V8.42608H34.8483ZM34.1476 6.77633L34.8524 5.59676H34.1476L33.7952 6.18655L33.4429 5.59676H32.7381L32.3857 6.18655L32.0334 5.59676H31.3286L32.0334 6.77633L31.3286 7.9559H32.0334L32.3857 7.36612L32.7381 7.9559H33.4429L33.7952 7.36612L34.1476 7.9559H34.8524L34.1476 6.77633ZM34.8483 4.4172V3.70368H34.1435V4.4172H33.4388V3.70368H32.7381V4.4172H32.0334V3.70368H31.3286V5.12246H34.8442V4.4172H34.8483ZM32.7381 6.77633L33.0905 7.36612L33.4429 6.77633L33.0905 6.18655L32.7381 6.77633ZM38.2778 14.4229V17.3718C38.2778 22.1355 34.4426 25.9959 29.7101 25.9959C24.9777 25.9959 21.1425 22.1355 21.1425 17.3718V14.4229H38.2778ZM32.4308 16.3325H27.7065L27.01 17.1161V23.6285H31.2794V17.5121H27.8294L28.2515 17.0419H31.7998V23.0263L32.4308 22.3458V16.3325Z" fill="black"/>
<path d="M3.47049 25.468V13.1567H3.67945L14.1565 25.468H18.5734L7.21959 12.3484L17.627 0H13.3165L3.67945 11.9937H3.47049V0H0V25.468H3.47049Z" fill="black"/>
</g>
<defs>
<clipPath id="clip0_3219_3081">
<rect width="38.2778" height="26" fill="white"/>
</clipPath>
</defs>
</svg>