<svg width="24" height="16" viewBox="0 0 24 16" fill="none" xmlns="http://www.w3.org/2000/svg">
<path d="M22.6298 2.5024C22.3695 1.5232 21.6013 0.752 20.6332 0.4896C18.8589 0 11.7646 0 11.7646 0C11.7646 0 4.66719 0 2.89283 0.4704C1.94059 0.7328 1.15657 1.5232 0.896289 2.5024C0.429688 4.2912 0.429688 8 0.429688 8C0.429688 8 0.429688 11.728 0.896289 13.4976C1.15657 14.4768 1.92472 15.248 2.89283 15.5104C4.68623 16 11.7646 16 11.7646 16C11.7646 16 18.8589 16 20.6332 15.5296C21.6045 15.2672 22.3695 14.4928 22.6298 13.5168C23.0964 11.728 23.0964 8.0192 23.0964 8.0192C23.0964 8.0192 23.1154 4.2912 22.6298 2.5024ZM9.50461 11.4272V4.5728L15.4054 8L9.50461 11.4272Z" fill="#282828"/>
</svg>
